<svg width="60" height="63" viewBox="0 0 60 63" fill="none" xmlns="http://www.w3.org/2000/svg">
<g clip-path="url(#clip0_205_6249)">
<path d="M33.2024 0.61377C33.2024 21.0999 33.2024 41.586 33.2024 62.693C30.0477 62.693 28.0442 62.5527 25.102 61.7642C24.375 61.571 23.6479 61.3777 22.8989 61.1786C22.1506 60.9741 21.4023 60.7697 20.6314 60.559C19.8619 60.3545 19.0923 60.1504 18.3226 59.9467C12.7036 58.4375 12.7036 58.4375 12.0301 57.7266C11.9742 56.14 11.9563 54.5701 11.9634 52.9832C11.9633 52.4867 11.9632 51.9901 11.9631 51.4784C11.9635 49.8291 11.9681 48.1799 11.9727 46.5306C11.9738 45.3901 11.9746 44.2497 11.9752 43.1093C11.9775 40.1017 11.9833 37.094 11.9898 34.0864C11.9958 31.0198 11.9985 27.9531 12.0014 24.8865C12.0077 18.8649 12.0178 12.8433 12.0301 6.82169C15.6233 5.18043 19.2063 3.87561 22.9471 2.67014C23.8426 2.37185 23.8426 2.37185 24.7563 2.06754C25.3366 1.87988 25.9169 1.69223 26.5149 1.49888C27.2979 1.24358 27.2979 1.24358 28.0967 0.983123C29.6737 0.61377 29.6737 0.61377 33.2024 0.61377ZM27.9094 31.0326C27.9094 31.852 27.9094 32.6715 27.9094 33.5158C28.2975 33.5158 28.6857 33.5158 29.0856 33.5158C29.0856 32.6963 29.0856 31.8769 29.0856 31.0326C28.6974 31.0326 28.3093 31.0326 27.9094 31.0326Z" fill="#2D758D"/>
<path d="M35.5547 5.58008C39.4363 5.58008 43.3179 5.58008 47.3171 5.58008C47.3171 22.7884 47.3171 39.9968 47.3171 57.7266C43.4355 57.7266 39.5539 57.7266 35.5547 57.7266C35.5547 56.9072 35.5547 56.0877 35.5547 55.2434C38.66 55.2434 41.7652 55.2434 44.9646 55.2434C44.9646 39.674 44.9646 24.1045 44.9646 8.06325C41.8593 8.06325 38.7541 8.06325 35.5547 8.06325C35.5547 7.2438 35.5547 6.42436 35.5547 5.58008Z" fill="#2D758D"/>
</g>
<defs>
<clipPath id="clip0_205_6249">
<rect width="58.8119" height="62.0792" fill="white" transform="translate(0.267578 0.61377)"/>
</clipPath>
</defs>
</svg>
