<svg width="66" height="59" viewBox="0 0 66 59" fill="none" xmlns="http://www.w3.org/2000/svg">
<path d="M7.5625 2.33125C7.5625 4.325 9.55625 6.25 11.55 6.25C13.475 6.25 13.6125 3.5 11.825 1.91875C9.9 0.13125 7.5625 0.40625 7.5625 2.33125Z" fill="#2D758D"/>
<path d="M54.106 1.9875C52.3185 3.9125 52.5935 6.25 54.5185 6.25C56.5123 6.25 58.4373 4.25625 58.4373 2.2625C58.4373 0.3375 55.6873 0.2 54.106 1.9875Z" fill="#2D758D"/>
<path d="M28.1875 4.11875C19.3875 7.00625 13.75 14.2937 13.75 22.8188C13.75 26.875 15.8125 32.2375 18.7688 35.5375C20.2812 37.2562 21.8625 39.9375 22.3438 41.5187L23.1687 44.4062H33H42.8313L43.725 41.3812C44.2063 39.7312 45.5125 37.3937 46.6125 36.225C50.3937 32.2375 51.9062 28.4562 51.9062 22.75C51.8375 14.775 48.4 9.1375 41.25 5.5625C37.95 3.9125 31.1438 3.15625 28.1875 4.11875Z" fill="#2D758D"/>
<path d="M0.274606 19.5875C-0.619144 21.9938 0.480856 22.8188 4.26211 22.6125C7.63086 22.4063 7.90586 22.2688 7.90586 20.6875C7.90586 19.1063 7.63086 18.9688 4.26211 18.7625C1.51211 18.625 0.549606 18.8313 0.274606 19.5875Z" fill="#2D758D"/>
<path d="M58.0246 19.5875C57.1309 21.9938 58.2309 22.8188 62.0121 22.6125C65.3809 22.4063 65.6559 22.2688 65.6559 20.6875C65.6559 19.1063 65.3809 18.9688 62.0121 18.7625C59.2621 18.625 58.2996 18.8313 58.0246 19.5875Z" fill="#2D758D"/>
<path d="M8.73104 36.3625C6.94354 38.2875 7.21854 40.625 9.14354 40.625C11.1373 40.625 13.0623 38.6312 13.0623 36.6375C13.0623 34.7125 10.3123 34.575 8.73104 36.3625Z" fill="#2D758D"/>
<path d="M52.9375 36.7062C52.9375 38.7 54.9313 40.625 56.925 40.625C58.85 40.625 58.9875 37.875 57.2 36.2937C55.275 34.5062 52.9375 34.7812 52.9375 36.7062Z" fill="#2D758D"/>
<path d="M24.0625 49.0125C24.1312 51.0062 26.3312 56.7812 27.2937 57.5375C28.05 58.0875 30.3187 58.4312 33.0687 58.5C36.85 58.5 37.8125 58.2937 38.9812 56.9875C39.7375 56.0938 40.5625 54.4437 40.8375 53.3438C41.1125 52.175 41.4562 50.7312 41.6625 50.0437C42.0062 48.9437 41.25 48.875 33.0687 48.875C28.1187 48.875 24.0625 48.9437 24.0625 49.0125Z" fill="#2D758D"/>
</svg>
