<svg width="56" height="56" viewBox="0 0 56 56" fill="none" xmlns="http://www.w3.org/2000/svg">
<path d="M4.89988 5.23001C0.807882 9.32201 0.0818816 10.378 0.675882 11.302C2.58988 14.338 3.31588 14.074 9.84988 7.54001C13.2819 4.10801 16.1199 1.07201 16.1199 0.808009C16.1199 0.478009 14.7339 0.280009 12.9519 0.280009C9.91588 0.280009 9.65188 0.478008 4.89988 5.23001Z" fill="#2D758D"/>
<path d="M18.7598 0.808039C18.7598 1.07204 21.9938 4.57004 26.0198 8.53004L33.2798 15.79L35.0618 13.942L36.9098 12.16L30.9698 6.22004C25.1618 0.412039 24.9638 0.280039 21.9278 0.280039C20.1458 0.280039 18.7598 0.478039 18.7598 0.808039Z" fill="#2D758D"/>
<path d="M29.3203 0.808123C29.3203 1.13812 30.2443 2.19412 31.3003 3.25012L33.2803 5.16412L34.9963 3.44812C35.9863 2.52412 36.5143 1.40212 36.3163 1.00612C35.7883 0.148123 29.3203 0.0161228 29.3203 0.808123Z" fill="#2D758D"/>
<path d="M38.2301 3.58001L34.9961 6.88001L36.7781 8.66201L38.5601 10.51L43.1801 5.89001C45.6881 3.38201 47.8001 1.07201 47.8001 0.808009C47.8001 0.478008 46.3481 0.280008 44.6321 0.280008C41.7281 0.280008 41.2001 0.544008 38.2301 3.58001Z" fill="#2D758D"/>
<path d="M43.5097 8.86001L34.9297 17.44L36.7777 19.222L38.5597 21.07L47.1397 12.49C51.8917 7.80401 55.7197 3.58001 55.7197 3.18401C55.7197 2.32601 53.6077 0.280008 52.6837 0.280008C52.3537 0.280008 48.1957 4.10801 43.5097 8.86001Z" fill="#2D758D"/>
<path d="M8.52995 12.1601C-0.446056 21.1361 -0.710055 21.6641 2.45794 23.6441C3.38195 24.2381 5.03195 22.9181 12.2919 15.6581L21.0039 6.94606L19.4199 5.23005C18.5619 4.30606 17.7039 3.58005 17.5059 3.58005C17.2419 3.58005 13.2159 7.47406 8.52995 12.1601Z" fill="#2D758D"/>
<path d="M20.7403 10.5099L19.1562 12.2259L26.2183 19.2879L33.2803 26.3499L35.0623 24.5019L36.9103 22.7199L29.9803 15.7899C26.1523 11.9619 22.9183 8.85991 22.6543 8.85991C22.4563 8.85991 21.5983 9.58591 20.7403 10.5099Z" fill="#2D758D"/>
<path d="M43.5097 19.42L34.9297 28L36.7777 29.782L38.5597 31.63L47.1397 23.05C51.8917 18.364 55.7197 14.14 55.7197 13.744C55.7197 12.886 53.6077 10.84 52.6837 10.84C52.3537 10.84 48.1957 14.668 43.5097 19.42Z" fill="#2D758D"/>
<path d="M8.52995 22.7201C-0.446056 31.6961 -0.710055 32.2241 2.45794 34.2041C3.38195 34.7981 5.03195 33.4781 12.2919 26.2181L21.0039 17.5061L19.4199 15.7901C18.5619 14.8661 17.7039 14.1401 17.5059 14.1401C17.2419 14.1401 13.2159 18.0341 8.52995 22.7201Z" fill="#2D758D"/>
<path d="M20.7403 21.07L19.1562 22.786L26.2183 29.848L33.2803 36.91L35.0623 35.062L36.9103 33.28L29.9803 26.35C26.1523 22.522 22.9183 19.42 22.6543 19.42C22.4563 19.42 21.5983 20.146 20.7403 21.07Z" fill="#2D758D"/>
<path d="M43.5097 29.98L34.9297 38.56L36.7777 40.342L38.5597 42.19L47.1397 33.61C51.8917 28.924 55.7197 24.7 55.7197 24.304C55.7197 23.446 53.6077 21.4 52.6837 21.4C52.3537 21.4 48.1957 25.228 43.5097 29.98Z" fill="#2D758D"/>
<path d="M8.52995 33.2801C-0.446056 42.2561 -0.710055 42.7841 2.45794 44.7641C3.38195 45.3581 5.03195 44.0381 12.2919 36.7781L21.0039 28.0661L19.4199 26.35C18.5619 25.4261 17.7039 24.7 17.5059 24.7C17.2419 24.7 13.2159 28.5941 8.52995 33.2801Z" fill="#2D758D"/>
<path d="M20.7403 31.63L19.1562 33.346L26.2183 40.408L33.2803 47.47L35.0623 45.622L36.9103 43.84L29.9803 36.91C26.1523 33.082 22.9183 29.98 22.6543 29.98C22.4563 29.98 21.5983 30.706 20.7403 31.63Z" fill="#2D758D"/>
<path d="M43.5097 40.5401L34.9297 49.1201L36.7777 50.9021L38.5597 52.7501L47.1397 44.1701C51.8917 39.4841 55.7197 35.2601 55.7197 34.8641C55.7197 34.0061 53.6077 31.9601 52.6837 31.9601C52.3537 31.9601 48.1957 35.7881 43.5097 40.5401Z" fill="#2D758D"/>
<path d="M8.52995 43.84C-0.446056 52.8161 -0.710055 53.3441 2.45794 55.3241C3.38195 55.9181 5.03195 54.5981 12.2919 47.3381L21.0039 38.626L19.4199 36.91C18.5619 35.986 17.7039 35.26 17.5059 35.26C17.2419 35.26 13.2159 39.154 8.52995 43.84Z" fill="#2D758D"/>
<path d="M20.7403 42.19L19.1562 43.906L25.0303 49.78C30.8383 55.588 31.0363 55.72 34.0723 55.72C35.8543 55.72 37.2403 55.522 37.2403 55.192C37.2403 54.664 23.2483 40.54 22.6543 40.54C22.4563 40.54 21.5983 41.266 20.7403 42.19Z" fill="#2D758D"/>
<path d="M45.9519 48.658C42.6519 52.024 39.8799 54.994 39.8799 55.258C39.8799 55.522 41.2659 55.72 43.0479 55.72C46.0839 55.72 46.3479 55.522 50.9679 50.902C53.5419 48.262 55.7199 45.82 55.7199 45.424C55.7199 44.566 53.5419 42.52 52.6839 42.52C52.3539 42.52 49.3179 45.292 45.9519 48.658Z" fill="#2D758D"/>
<path d="M12.6222 50.308C10.1802 52.75 8.2002 54.994 8.2002 55.258C8.2002 55.522 9.6522 55.72 11.3682 55.72C14.2722 55.72 14.8002 55.456 17.7702 52.42L21.0042 49.12L19.4202 47.47C18.5622 46.546 17.7042 45.82 17.4402 45.82C17.2422 45.82 15.0642 47.8 12.6222 50.308Z" fill="#2D758D"/>
<path d="M20.8059 52.684C19.9479 53.608 19.4859 54.598 19.7499 54.994C20.2119 55.852 26.6799 55.984 26.6799 55.192C26.6799 54.598 23.1819 51.1 22.6539 51.1C22.4559 51.1 21.5979 51.826 20.8059 52.684Z" fill="#2D758D"/>
</svg>
