<svg width="33" height="26" viewBox="0 0 33 26" fill="none" xmlns="http://www.w3.org/2000/svg">
<path d="M8.98639 1.18501C8.15932 1.32344 7.45632 1.92602 7.14617 2.76882L7.05105 3.03347L7.03865 10.2604C7.03038 15.0932 7.04278 17.5769 7.07173 17.7601C7.12549 18.1265 7.21647 18.3749 7.38602 18.6517C7.66722 19.1159 8.13865 19.4823 8.68451 19.6696C8.93677 19.7551 9.03188 19.7633 10.3469 19.7795L11.7405 19.7958L11.7571 13.7741C11.7653 8.26127 11.7736 7.73605 11.8398 7.53247C12.0424 6.88103 12.5097 6.31917 13.0721 6.05452C13.6056 5.79801 13.5683 5.80209 16.5003 5.80209C19.4405 5.80209 19.3826 5.79801 19.9326 6.05859C20.3544 6.26217 20.7721 6.66932 20.983 7.08868C21.2146 7.55283 21.2518 7.84598 21.2559 9.25065V10.4599L19.8417 10.4721L18.4232 10.4843L18.1172 10.5942C17.1454 10.9444 16.5293 11.7831 16.5334 12.7644C16.5334 13.2081 16.5871 13.4484 16.7691 13.8229C17.0214 14.3441 17.4721 14.7431 18.0593 14.9752L18.3405 15.0851L19.7879 15.1055L21.2353 15.1258L21.2559 18.8716C21.2808 22.9105 21.2683 22.7151 21.5082 23.167C21.8225 23.7696 22.3642 24.189 23.0548 24.3681C23.2492 24.417 23.5635 24.4292 24.6345 24.4292H25.9702L25.962 19.5515L25.9496 14.678L25.8586 14.4092C25.6849 13.9125 25.3168 13.4484 24.8744 13.1715C24.6221 13.0127 24.0969 12.8254 23.8984 12.8254C23.7041 12.8254 23.762 12.7969 24.1011 12.7277C24.895 12.5648 25.5195 12.0193 25.842 11.205L25.9496 10.9322V7.00318V3.07418L25.8503 2.77696C25.6146 2.06852 25.0811 1.53108 24.3533 1.27051L24.0473 1.16058L16.6244 1.1565C12.4849 1.15243 9.10632 1.16465 8.98639 1.18501Z" fill="white"/>
<path d="M28.0174 1.29048C27.5666 1.44927 27.12 1.81978 26.9298 2.18214C26.6568 2.71144 26.6444 3.32623 26.8926 3.84738C27.4591 5.01998 28.985 5.28462 29.9196 4.37668C30.8542 3.46466 30.5689 1.91749 29.3614 1.37191C29.1298 1.26605 29.0347 1.2457 28.6584 1.23348C28.3151 1.22127 28.1787 1.23348 28.0174 1.29048ZM29.2993 1.60806C29.626 1.76278 29.9155 2.05185 30.0768 2.39386C30.1967 2.64222 30.2091 2.69922 30.2091 3.0738C30.2091 3.45245 30.2008 3.50131 30.0726 3.75374C29.9031 4.09982 29.5433 4.43368 29.2084 4.56397C28.8651 4.69426 28.3193 4.69426 27.9843 4.56397C27.6535 4.43368 27.2896 4.09575 27.12 3.75781C27.0125 3.54202 26.9877 3.43209 26.9711 3.15523C26.938 2.56893 27.182 2.07221 27.6659 1.73835C27.9884 1.51849 28.1911 1.46556 28.6584 1.47777C28.9892 1.48999 29.0884 1.51034 29.2993 1.60806Z" fill="white"/>
<path d="M27.8726 3.01277V3.94922H27.9966H28.1207V3.56243V3.17563H28.3068C28.6831 3.17563 28.9147 3.36292 29.0139 3.74157C29.0511 3.90036 29.0759 3.93293 29.1711 3.94108C29.2662 3.95329 29.2786 3.94108 29.2786 3.83929C29.2744 3.6805 29.1835 3.44435 29.0594 3.28556L28.956 3.1512L29.0966 3.02092C29.353 2.7807 29.3241 2.36133 29.0346 2.16997C28.9064 2.08447 28.8485 2.07633 28.3853 2.07633H27.8726V3.01277ZM28.9436 2.42648C29.0594 2.56898 29.0511 2.70741 28.9271 2.82956C28.8361 2.9232 28.7947 2.93134 28.4722 2.93134H28.1207V2.62598V2.32062H28.4887C28.8402 2.32062 28.865 2.32469 28.9436 2.42648Z" fill="white"/>
<path d="M13.8289 6.59575C13.3533 6.68939 12.9398 7.01511 12.7082 7.48333L12.5511 7.79277L12.5386 12.6786C12.5304 15.9602 12.5428 17.6336 12.5717 17.772C12.6792 18.2728 13.0018 18.6922 13.4608 18.9161L13.7089 19.0342H16.521H19.333L19.5605 18.9283C20.0236 18.7125 20.3627 18.2891 20.4661 17.8005C20.4909 17.6824 20.5116 17.202 20.5116 16.7338V15.8788H19.515C18.3571 15.8788 18.1214 15.8421 17.5548 15.5734C16.6947 15.1663 16.095 14.4334 15.8759 13.5336C15.7477 12.9961 15.7766 12.3284 15.9503 11.8358C16.1323 11.3309 16.3018 11.0663 16.7277 10.6469C17.042 10.3334 17.162 10.2479 17.4928 10.085C18.0924 9.79595 18.262 9.76745 19.4695 9.74302L20.5199 9.72266L20.5033 8.75771C20.4909 7.87013 20.4785 7.78055 20.3917 7.56069C20.2056 7.09247 19.7052 6.68939 19.1924 6.59575C18.9277 6.54689 14.0811 6.54689 13.8289 6.59575Z" fill="white"/>
</svg>
