<svg width="49" height="60" viewBox="0 0 49 60" fill="none" xmlns="http://www.w3.org/2000/svg">
<path d="M0.703469 1.28609C0.449924 1.47624 0.259766 5.3428 0.259766 9.77983C0.259766 17.8933 0.703469 19.4779 2.41489 17.9566C2.98537 17.5129 5.71097 17.3228 9.83107 17.4496L16.4232 17.6397L16.6134 21.8866L16.8035 26.1968H24.3465H31.9528V21.2527C31.9528 14.5972 30.6217 10.8574 26.8819 7.181C22.8252 3.0609 19.6559 2.1101 10.3382 2.1101C6.0279 2.1101 2.73183 1.85656 2.47828 1.47624C2.03458 0.715609 1.27394 0.652224 0.703469 1.28609Z" fill="#2D758D"/>
<path d="M15.726 29.4295C15.5359 29.8099 15.6627 30.4437 16.043 30.824C16.4867 31.2677 16.7402 33.9933 16.7402 37.6064C16.7402 45.4662 17.8812 48.9525 21.8111 52.819C25.8678 56.9391 29.0371 57.8899 38.2915 57.8899C42.8553 57.8899 45.8978 58.1435 46.3415 58.5872C47.9896 60.2352 48.4333 58.3336 48.4333 50.2836C48.4333 42.1068 47.9896 40.5221 46.2782 42.0434C45.7077 42.4871 42.9821 42.6772 38.862 42.5505L32.2698 42.3603L32.0797 37.0993C31.9529 33.8032 32.143 31.4579 32.5868 30.8874C33.0305 30.4437 33.1572 29.7465 32.9037 29.3662C32.3332 28.4787 16.2965 28.4787 15.726 29.4295Z" fill="#2D758D"/>
</svg>
