<svg width="49" height="64" viewBox="0 0 49 64" fill="none" xmlns="http://www.w3.org/2000/svg">
<path d="M2.24212 1.40728C1.04541 2.61499 0.982422 3.50487 0.982422 33.1889V63.6992H24.9167H48.851V33.1889C48.851 3.50487 48.788 2.61499 47.5913 1.40728C46.3946 0.199585 45.5128 0.136021 24.9167 0.136021C4.32063 0.136021 3.43884 0.199585 2.24212 1.40728ZM21.1376 12.8487V16.6625H15.469H9.80032V12.8487V9.03487H15.469H21.1376V12.8487ZM40.0331 12.8487V16.6625H34.3645H28.6958V12.8487V9.03487H34.3645H40.0331V12.8487ZM21.1376 25.5613V29.3751H15.469H9.80032V25.5613V21.7475H15.469H21.1376V25.5613ZM40.0331 25.5613V29.3751H34.3645H28.6958V25.5613V21.7475H34.3645H40.0331V25.5613ZM21.1376 38.2739V42.0877H15.469H9.80032V38.2739V34.4601H15.469H21.1376V38.2739ZM40.0331 38.2739V42.0877H34.3645H28.6958V38.2739V34.4601H34.3645H40.0331V38.2739ZM21.1376 50.9866V54.8004H15.469H9.80032V50.9866V47.1728H15.469H21.1376V50.9866ZM40.0331 54.1647V61.1567H34.3645H28.6958V54.1647V47.1728H34.3645H40.0331V54.1647Z" fill="#2D758D"/>
</svg>
