<svg xmlns="http://www.w3.org/2000/svg" version="1.1" xmlns:xlink="http://www.w3.org/1999/xlink" width="512" height="512" x="0" y="0" viewBox="0 0 512 512" style="enable-background:new 0 0 512 512" xml:space="preserve" class="hovered-paths"><g><path fill-rule="evenodd" d="m210.806 125.852-12.036-12.036-12.036 12.036zm83.344 308.061h-28.456v25.79h28.456zm44.455 0h-28.456v25.79h28.456zm-44.455-57.79h-28.456v-25.79h28.456zm44.455 0h-28.456v-25.79h28.456zm-28.456 16h28.456v25.79h-28.456zm-44.455 0h28.456v25.79h-28.456zm0-109.887h72.912v9.809h-72.912zm165.133 44.574h-28.456v25.79h28.456zm44.456 0h-28.456v25.79h28.456zm-44.456-57.791h-28.456v-25.79h28.456zm44.456 0h-28.456v-25.79h28.456zm-28.456 16h28.456v25.79h-28.456zm-44.456 0h28.456v25.79h-28.456zM378.488 501V204.198h120.677V501h-29.356v-83.131c0-7.712-6.979-14.004-15.538-14.004h-30.889c-8.558 0-15.538 6.291-15.538 14.004V501zm23.883-323.106h72.912v10.305h-72.912zM362.488 501H241.811V308.045h120.677zM232.119 124.539l12.036-12.036h-24.072zm45.385 1.313-12.036-12.036-12.036 12.036zm53.734-11.11-11.109 11.11h24.392zm-32.422 9.797 12.036-12.036H286.78zM175.783 92.503h102.995L175.783 42.948zm-46.278 0h26.278V31h-9.652zm24.965 316.288-33.275-33.275v66.551zm1.313-87.863v66.551l-33.275-33.275zm-1.313-21.313-33.275-33.275v66.551zm1.313-87.863v66.551l-33.275-33.275zm-1.313-21.312-33.275-33.275v66.551zm-21.962-44.588h23.275v23.275zm20.877-33.349 12.036 12.036 12.036-12.036zm-9.276 13.349-12.036-12.036-12.036 12.036zm-44.235-2.464 10.885-10.885H92.434zM82.263 92.503v-2.04a5.981 5.981 0 0 0-1.835-4.308l38.489-31.025-10.104 37.373zm40.244 370.876 33.275-33.275v33.275zm-42.327 0h21.015V145.852H82.263v2.04c0 3.3-2.7 6-6 6H18.834c-3.3 0-6-2.7-6-6v-57.43c0-3.3 2.7-6 6-6h38.263l68.906-55.543 2.838-10.498c1.194-4.467 5.234-7.413 9.649-7.411l27.293-.01c5.523 0 10 4.477 10 10v4.265L315.53 92.503h16.635a9.969 9.969 0 0 1 6.844 2.709l39.436 32.983c7.191 6.017 2.801 17.634-6.406 17.639l-33.406.018v38.155h13c2.2 0 4 1.8 4 4v42c0 2.2-1.8 4-4 4h-42c-2.2 0-4-1.8-4-4v-42c0-2.2 1.8-4 4-4h13v-38.155h-146.85v317.527h21.015c2.2 0 4 1.8 4 4V497c0 2.2-1.8 4-4 4H80.18c-2.2 0-4-1.8-4-4v-29.621c0-2.2 1.799-4 4-4z" clip-rule="evenodd" fill="#2d758d" opacity="1" data-original="#2d758d" class="hovered-path"></path></g></svg>