<svg xmlns="http://www.w3.org/2000/svg" version="1.1" xmlns:xlink="http://www.w3.org/1999/xlink" width="512" height="512" x="0" y="0" viewBox="0 0 66 66" style="enable-background:new 0 0 512 512" xml:space="preserve" class=""><g><path d="m52.9 46.9 1.2 13c.1 1.6 1.6 2.7 3.1 2.6 1.6-.1 2.7-1.5 2.6-3.1l-1.2-13.7c-2 .7-3.8 1.1-5.7 1.2zM43.2 59.4c-.1 1.6 1 2.9 2.6 3.1 1.4.2 2.9-.9 3.1-2.6l1.2-13c-1.9-.1-3.8-.5-5.6-1.2zM64.8 28.9c-.7-1.5 2.2 4.9-5.6-12.6-.3-.6-.9-1-1-1-4-2.2-8.1-2.4-12.1-.7C33.3 4.5 37.7 8 36.8 7.2c-.5-.4-1.1-.5-1.7-.3 0 .1 1.6 1.9-.1 3.7 10 8.1 9.4 7.6 9.6 7.7V26l-3.4 17.1c6.4 3.8 13.9 3.9 20.5 0L58.3 26v-2.5c0 .1 3.3 7.4 3.1 7 .4 1 1.6 1.4 2.5 1 .9-.5 1.4-1.6.9-2.6z" fill="#2d758d" opacity="1" data-original="#2d758d" class=""></path><path d="M51.4 13c2.8 0 5.2-2.3 5.2-5.2s-2.3-5.2-5.2-5.2-5.2 2.3-5.2 5.2 2.4 5.2 5.2 5.2z" fill="#2d758d" opacity="1" data-original="#2d758d" class=""></path><circle cx="16" cy="8" r="5.2" fill="#2d758d" opacity="1" data-original="#2d758d" class=""></circle><path d="M22.3 42.8c.2-.1.4-.3.4-.5.2-2.5-.7 9.1 1.9-24.4l9.5-7.7c2-1.6-.5-4.5-2.4-2.9l-9.6 7.8c-6.6-3.6-14.4.5-15.3 2.4L1.2 30.1c-1 2.3 2.4 3.8 3.4 1.5l3.2-7.3 1.4 18c0 .3.2.5.4.5l-2 16.7c-.4 3.7 5.2 4.4 5.6.7l2-17.3h1.3l2 17.3c.4 3.8 6 3 5.6-.7z" fill="#2d758d" opacity="1" data-original="#2d758d" class=""></path><path d="M30.1 31.7c0 1.8 1.4 3.3 3.2 3.3s3.2-1.5 3.2-3.3-1.5-3.2-3.2-3.2c-1.7-.1-3.2 1.4-3.2 3.2z" fill="#2d758d" opacity="1" data-original="#2d758d" class=""></path><path d="M37 52c.1 0 .3-.1.3-.3l1-12.9 4.3-7.6c0-.1.8-1.4-.5-2.1-.7-.4-1.5-.1-1.9.5l-3.7 6.5c-2.2-1-4.3-1.1-6.4-.1l-3.6-6.4c-.4-.7-1.2-.9-1.9-.5s-.9 1.2-.5 1.9l4.3 7.6 1 13c0 .1.1.2.3.3L28.1 61c-.4 2.5 3.3 3.1 3.7.7l1.5-8.8 1.6 8.8c.4 2.5 4.1 1.8 3.7-.7z" fill="#2d758d" opacity="1" data-original="#2d758d" class=""></path></g></svg>