<svg xmlns="http://www.w3.org/2000/svg" version="1.1" xmlns:xlink="http://www.w3.org/1999/xlink" width="512" height="512" x="0" y="0" viewBox="0 0 512 512" style="enable-background:new 0 0 512 512" xml:space="preserve" class="hovered-paths"><g><path fill-rule="evenodd" d="M344.876 11 230.804 59.763v404.226h34.729v-84.972l-8.037.765a5.98 5.98 0 0 1-1.124-11.907l61.812-5.883a5.98 5.98 0 0 1 1.125 11.906l-9.161.872v89.218h148.801V59.763zm-69.323 313.552-21.562 2.064v-41.662l21.562-3.325zm.007-67.675-21.568 4.052v-41.762l21.568-5.316zm0-67.709-21.568 6.041v-41.762l21.568-7.305zm0-67.744-21.568 7.998V90.407l21.575-9.248zm46.129 198.733-24.297 2.329v-44.272l24.297-3.753zm0-72.004-24.297 4.573v-44.237l24.297-5.996v45.659zm0-71.968L297.392 183v-44.272l24.297-8.239zm0-71.968-24.297 9.057-.007-41.463 24.303-10.427v42.833zm57.706 288.784a6 6 0 1 1-12 0V63.407a6 6 0 1 1 12 0v329.596zm28.518 0a6 6 0 1 1-12 0V75.598a6 6 0 0 1 12 0v317.405zm28.518 0a6 6 0 1 1-12 0V87.789a6 6 0 1 1 12 0v305.214zM171.838 128.766 53.052 179.544v284.445h37.086v-65.972l-8.037.765a5.98 5.98 0 1 1-1.124-11.906l61.812-5.883a5.98 5.98 0 0 1 1.125 11.907l-9.161.872v70.218h84.052V148.843zM95.981 336.639l-17.549 2.403v-33.78l17.549-3.605zm0-55.061-17.549 4.316v-33.781l17.549-5.517zm.006-55.082-17.554 6.207v-31.55l17.56-7.396-.005 32.739zm38.155 104.874-20.211 2.785v-36.177l20.211-4.171zm0-59.215-20.211 4.979v-36.199l20.211-6.387zm0-59.237-20.217 7.196v-33.9l20.217-8.567zM11.554 475.989h488.892V501H11.554z" fill="#2d758d" opacity="1" data-original="#2d758d" class="hovered-path"></path></g></svg>